<svg width="78" height="78" xmlns="http://www.w3.org/2000/svg">

 <g>
  <title>background</title>
  <rect fill="none" id="canvas_background" height="80" width="80" y="-1" x="-1"/>
 </g>
 <g>
  <title>Layer 1</title>
  <rect rx="6" id="svg_67" height="78" width="78" y="-0.051513" x="-0.095513" stroke-width="0" fill="#ffffff"/>
  <g stroke="null" id="svg_68">
   <path stroke="null" id="svg_47" d="m7.702848,20.653322c-6.35859,9.121542 -5.567028,20.988682 -0.709614,30.68051c0.115485,0.232363 0.236538,0.460996 0.355738,0.689643c0.076379,0.144993 0.148067,0.293701 0.227223,0.436837c0.04472,0.085467 0.094978,0.169152 0.141552,0.250949c0.082864,0.154282 0.16762,0.30114 0.253291,0.451707c0.150867,0.265819 0.305456,0.52978 0.463761,0.793757c0.08754,0.144985 0.17415,0.289978 0.264482,0.434971c0.175073,0.282547 0.354807,0.561378 0.538256,0.840202c0.076379,0.118968 0.150859,0.237937 0.229085,0.353182c0.253306,0.377356 0.512189,0.752847 0.779433,1.122757c0.006637,0.009517 0.013923,0.020482 0.022314,0.029695c0.041958,0.059465 0.088494,0.117111 0.131307,0.176599c0.230954,0.317861 0.469353,0.632013 0.710545,0.942458c0.088494,0.113387 0.177865,0.226782 0.267267,0.34017c0.215124,0.269542 0.433963,0.537227 0.656533,0.804873c0.082864,0.100383 0.166689,0.20075 0.250499,0.299275c0.298934,0.351332 0.603444,0.700798 0.914462,1.04281c0.005722,0.00533 0.013068,0.01302 0.018591,0.018578c0.013068,0.014847 0.024221,0.024136 0.035375,0.038984c0.303587,0.33088 0.61462,0.654322 0.929415,0.977787c0.09777,0.100383 0.197425,0.200765 0.297995,0.29929c0.243984,0.245368 0.49169,0.487028 0.742204,0.726815c0.101501,0.096659 0.202079,0.195184 0.303587,0.288128c0.334309,0.314153 0.672355,0.622724 1.016917,0.92388c0.005722,0.00533 0.0102,0.009517 0.01583,0.01302c0.05865,0.05208 0.1192,0.100383 0.176942,0.150566c0.303587,0.262103 0.612759,0.522349 0.923769,0.77891c0.126645,0.10224 0.255168,0.202623 0.382744,0.304856c0.254229,0.202615 0.51125,0.403381 0.770126,0.600423c0.136899,0.104098 0.273789,0.208189 0.411619,0.312295c0.285889,0.210047 0.573646,0.416385 0.864188,0.619009c0.106155,0.076231 0.208601,0.150566 0.314756,0.223059c0.029752,0.020482 0.056834,0.040887 0.086587,0.061369c0.275658,0.189603 0.557817,0.371768 0.83909,0.553947c0.121061,0.079947 0.241192,0.163571 0.363191,0.241645c0.432094,0.273258 0.870749,0.5428 1.313981,0.803046c0.120123,0.06883 0.242122,0.135696 0.363176,0.204481c0.32594,0.187745 0.653741,0.371775 0.986173,0.552089c0.179734,0.096659 0.364122,0.187745 0.545717,0.280689c0.234669,0.122684 0.467484,0.247226 0.705884,0.366194c0.053974,0.026116 0.109893,0.05208 0.162966,0.078043c0.095924,0.046445 0.192772,0.091086 0.288688,0.139419c0.369698,0.176599 0.742204,0.349474 1.118456,0.516776c0.080102,0.035329 0.157382,0.070658 0.236538,0.105956c0.431164,0.187738 0.866019,0.368052 1.304674,0.540935c0.105231,0.042714 0.211394,0.083655 0.317556,0.124534c0.406019,0.156155 0.817653,0.310445 1.231133,0.45543c0.052166,0.018578 0.102447,0.035329 0.15459,0.053831c0.453523,0.158013 0.911716,0.304856 1.372647,0.447991c0.109885,0.031598 0.220701,0.066927 0.331516,0.098525c0.469353,0.141277 0.933153,0.310429 1.417351,0.399658c30.751622,5.597109 39.684163,-18.444092 39.684163,-18.444092c-7.502145,9.755024 -20.818947,12.327786 -33.43619,9.463409c-0.47773,-0.107814 -0.941468,-0.256522 -1.408044,-0.394084c-0.118277,-0.035329 -0.234677,-0.070582 -0.351084,-0.105956c-0.455377,-0.139412 -0.907062,-0.286263 -1.355863,-0.440552c-0.061503,-0.022233 -0.123861,-0.044618 -0.186257,-0.066927c-0.402296,-0.141277 -0.799954,-0.289986 -1.195735,-0.44241c-0.111754,-0.044618 -0.223508,-0.08737 -0.335247,-0.131981c-0.433963,-0.171017 -0.865104,-0.349474 -1.290714,-0.535354c-0.08754,-0.037232 -0.17135,-0.076239 -0.25796,-0.113403c-0.365983,-0.165436 -0.728236,-0.332731 -1.088627,-0.505614c-0.104293,-0.050176 -0.208601,-0.098517 -0.314764,-0.150566c-0.283028,-0.137813 -0.563004,-0.284763 -0.842218,-0.427905c-0.186905,-0.09822 -0.376862,-0.191111 -0.562241,-0.293899c-0.341007,-0.181974 -0.67591,-0.371562 -1.009288,-0.564957c-0.112906,-0.063196 -0.227338,-0.124108 -0.341007,-0.189588c-0.443232,-0.260398 -0.881124,-0.529933 -1.314439,-0.803274c-0.119772,-0.07614 -0.236492,-0.157609 -0.354738,-0.236033c-0.314306,-0.202532 -0.627086,-0.40887 -0.935289,-0.620539c-0.102226,-0.069287 -0.200637,-0.143143 -0.301337,-0.211668c-0.297523,-0.210146 -0.591994,-0.422576 -0.884176,-0.638051c-0.132741,-0.09822 -0.263193,-0.197202 -0.392119,-0.295422c-0.26777,-0.204816 -0.534015,-0.411155 -0.797971,-0.622823c-0.1192,-0.094794 -0.238399,-0.189603 -0.355738,-0.284412c-0.335247,-0.275108 -0.666771,-0.552089 -0.993649,-0.836471c-0.034421,-0.029695 -0.071711,-0.059465 -0.108954,-0.091086c-0.353869,-0.310429 -0.70123,-0.628305 -1.044838,-0.948016c-0.099647,-0.094794 -0.196502,-0.187753 -0.29428,-0.282555c-0.254229,-0.241652 -0.504728,-0.485162 -0.750588,-0.734254c-0.098709,-0.098525 -0.197425,-0.195184 -0.294273,-0.293709c-0.312895,-0.319718 -0.620212,-0.643175 -0.921023,-0.972152c-0.014876,-0.016751 -0.030706,-0.031598 -0.045582,-0.048349c-0.318494,-0.347616 -0.629527,-0.702656 -0.934068,-1.061388c-0.082864,-0.098517 -0.162966,-0.193319 -0.244922,-0.289978c-0.227223,-0.273258 -0.452585,-0.550231 -0.672363,-0.829086c-0.082391,-0.100504 -0.164782,-0.203293 -0.24641,-0.306843c-0.264719,-0.342629 -0.523334,-0.684496 -0.77661,-1.031694c-7.004977,-9.536503 -9.521483,-22.689644 -3.92272,-33.49159" fill="#0868ac" fill-rule="nonzero"/>
   <path stroke="null" id="svg_48" d="m27.441178,12.968537c-4.598477,6.60459 -4.34894,15.445709 -0.761764,22.430769c0.601591,1.171105 1.277668,2.306882 2.033833,3.388752c0.689116,0.985172 1.452749,2.158181 2.367211,2.950034c0.331532,0.364344 0.677955,0.719384 1.031793,1.06885c0.089348,0.091086 0.180657,0.178456 0.271928,0.267685c0.343631,0.332738 0.692846,0.659903 1.054145,0.977787c0.014876,0.011116 0.027944,0.025964 0.04282,0.037232c0.003814,0.003807 0.007629,0.00533 0.0102,0.009517c0.399504,0.349474 0.812008,0.685935 1.231133,1.01677c0.093163,0.070582 0.185318,0.145001 0.279374,0.217493c0.419995,0.321591 0.848397,0.637594 1.287891,0.938727c0.013068,0.009517 0.024221,0.018578 0.037289,0.027867c0.193702,0.133838 0.391128,0.258388 0.587615,0.386645c0.094025,0.061369 0.183465,0.126407 0.278451,0.18403c0.313833,0.200758 0.631373,0.395942 0.954513,0.583687c0.045674,0.027867 0.09031,0.05208 0.135029,0.078043c0.278451,0.159855 0.560609,0.317861 0.843743,0.470292c0.098709,0.055734 0.199279,0.104098 0.299857,0.156147c0.195564,0.102233 0.391128,0.206339 0.590407,0.304856c0.029752,0.014847 0.06055,0.027867 0.089348,0.040963c0.405096,0.198892 0.813915,0.390368 1.231133,0.572533c0.089348,0.03906 0.181596,0.074312 0.27192,0.111529c0.333385,0.141277 0.670501,0.278839 1.00944,0.408962c0.143413,0.053907 0.288681,0.105956 0.432094,0.157998c0.307318,0.113387 0.615559,0.217493 0.926592,0.321584c0.140614,0.044618 0.278451,0.091086 0.419064,0.133846c0.442332,0.137554 0.879065,0.310429 1.340072,0.386645c23.743059,3.925918 29.22434,-14.318841 29.22434,-14.318841c-4.941162,7.102772 -14.509944,10.491296 -24.721069,7.846201c-0.453523,-0.118968 -0.900501,-0.249091 -1.344725,-0.388518c-0.13596,-0.040887 -0.269136,-0.085467 -0.404165,-0.130108c-0.315687,-0.102248 -0.629519,-0.210062 -0.940553,-0.323457c-0.142475,-0.05208 -0.28495,-0.104091 -0.424649,-0.157998c-0.340839,-0.130123 -0.677955,-0.265819 -1.012263,-0.407096c-0.091255,-0.03906 -0.183465,-0.074312 -0.272866,-0.115253c-0.419057,-0.182172 -0.831614,-0.373633 -1.238533,-0.574398c-0.209532,-0.102233 -0.415341,-0.210047 -0.621143,-0.316003c-0.1192,-0.061292 -0.23933,-0.122684 -0.358538,-0.18403c-0.264475,-0.143135 -0.52708,-0.291844 -0.785993,-0.44241c-0.061412,-0.035329 -0.125715,-0.06883 -0.188111,-0.105964c-0.321286,-0.187745 -0.637911,-0.381064 -0.951767,-0.579964c-0.096847,-0.061369 -0.189972,-0.128265 -0.286827,-0.191469c-0.20674,-0.133838 -0.413472,-0.269535 -0.616482,-0.407096c-0.437694,-0.30114 -0.863273,-0.617151 -1.283237,-0.9369c-0.096847,-0.076239 -0.193695,-0.150566 -0.288681,-0.226782c-4.469704,-3.522225 -8.01251,-8.335018 -9.696945,-13.792715c-1.7653,-5.660229 -1.384624,-12.01409 1.673755,-17.170274" fill="#0868ac" fill-rule="nonzero"/>
   <path stroke="null" id="svg_49" d="m44.042171,7.226839c-2.710888,3.981728 -2.977209,8.926624 -1.096103,13.324455c1.98356,4.667671 6.04848,8.329688 10.792438,10.065674c0.195564,0.072561 0.391128,0.137554 0.589484,0.204473c0.086587,0.02604 0.172273,0.05581 0.259821,0.081751c0.279374,0.08737 0.556886,0.189611 0.845574,0.243518c13.110063,2.528068 16.665838,-6.714307 17.61257,-8.07462c-3.114984,4.47618 -8.349702,5.550587 -14.772374,3.994748c-0.507314,-0.123346 -1.064978,-0.306082 -1.553983,-0.478919c-0.627086,-0.223089 -1.245017,-0.477396 -1.845402,-0.765204c-1.140503,-0.546683 -2.227604,-1.210622 -3.235367,-1.970497c-5.747525,-4.352148 -9.317795,-12.655187 -5.567485,-19.417158" fill="#0868ac" fill-rule="nonzero"/>
  </g>
 </g>
</svg>